<svg id="Layer_1" data-name="Layer 1" xmlns="http://www.w3.org/2000/svg" viewBox="0 0 64 64"><defs><style>.cls-1{fill:#6a59e7}.cls-2{fill:#dfe8f4}</style></defs><rect class="cls-1" x="41.15" y="14.96" width="5.7" height="12.42" rx=".43"/><rect class="cls-1" x="41.15" y="14.96" width="5.7" height="12.42" rx=".43" transform="rotate(90 44 21.17)"/><path class="cls-1" d="M14 8h18.62a2.51 2.51 0 0 1 2.51 2.51v42.94H11.52V10.51A2.51 2.51 0 0 1 14 8z"/><path class="cls-2" d="M35.13 29.85h14.53a2.82 2.82 0 0 1 2.82 2.82v20.78H35.13v-23.6z"/><rect class="cls-2" x="16.37" y="13.44" width="3.03" height="3.03" rx="1.21"/><rect class="cls-2" x="21.81" y="13.44" width="3.03" height="3.03" rx="1.21"/><rect class="cls-2" x="27.24" y="13.44" width="3.03" height="3.03" rx="1.21"/><rect class="cls-2" x="16.37" y="19.26" width="3.03" height="3.03" rx="1.21"/><rect class="cls-2" x="21.81" y="19.26" width="3.03" height="3.03" rx="1.21"/><rect class="cls-2" x="27.24" y="19.26" width="3.03" height="3.03" rx="1.21"/><rect class="cls-2" x="16.37" y="25.09" width="3.03" height="3.03" rx="1.21"/><rect class="cls-2" x="21.81" y="25.09" width="3.03" height="3.03" rx="1.21"/><rect class="cls-2" x="27.24" y="25.09" width="3.03" height="3.03" rx="1.21"/><rect class="cls-2" x="16.37" y="30.91" width="3.03" height="3.03" rx="1.21"/><rect class="cls-2" x="21.81" y="30.91" width="3.03" height="3.03" rx="1.21"/><rect class="cls-2" x="27.24" y="30.91" width="3.03" height="3.03" rx="1.21"/><rect class="cls-2" x="16.37" y="36.73" width="3.03" height="3.03" rx="1.21"/><rect class="cls-2" x="21.81" y="36.73" width="3.03" height="3.03" rx="1.21"/><rect class="cls-2" x="27.24" y="36.73" width="3.03" height="3.03" rx="1.21"/><path d="M20.29 45.12h6.08a1.13 1.13 0 0 1 1.13 1.13v7.21h-8.34v-7.21a1.13 1.13 0 0 1 1.13-1.13z" style="fill:#156cdd"/><path d="M46.38 53.45h-5.15v-2.58a2.57 2.57 0 0 1 2.57-2.57 2.58 2.58 0 0 1 2.58 2.57z" style="fill:#ccd8e5"/><rect class="cls-2" x="9.66" y="53.45" width="44.68" height="2.54" rx="1.12"/></svg>