<svg xmlns="http://www.w3.org/2000/svg" xml:space="preserve" width="2048" height="2048" style="shape-rendering:geometricPrecision;text-rendering:geometricPrecision;image-rendering:optimizeQuality;fill-rule:evenodd;clip-rule:evenodd"><defs><style>.fil0{fill:none}.fil1{fill:#ffffff;fill-rule:nonzero}</style></defs><g id="Layer_x0020_1"><path class="fil0" d="M-.001-.001h2048v2048h-2048z"/><g id="_344238064"><path id="_344234896" class="fil0" d="M256 255.998h1536v1536H256z"/><path id="_344236192" class="fil1" d="M1042.86 1637.27H512.905c-31.917 0-60.892-12.82-81.93-33.546-21.18-20.864-34.284-49.645-34.284-81.39V514.393c0-28.715 10.82-54.805 25.842-74.53 18.874-24.788 46.005-40.407 69.061-40.407h210.633l-7.655 37.111c-.5 2.434-.9 5.026-1.182 7.779-.206 2.008-.314 4.56-.314 7.696 0 19.875 8.108 37.476 21.212 50.108 13.596 13.106 32.63 21.085 53.796 21.085h278.4c21.188 0 40.232-8.003 53.81-21.257 13.097-12.783 21.195-30.709 21.195-51.212h.121c0-2.134-.147-4.546-.421-7.18-.282-2.688-.638-5.06-1.056-7.14l-7.461-36.99H1280.348c40.272 0 72.722 11.24 95.986 29.572 27.182 21.418 41.551 51.748 41.551 85.364v641.076a338.536 338.536 0 0 0-61.89-7.823V514.394c0-14.5-6.177-27.564-17.86-36.77-12.803-10.09-32.207-16.275-57.787-16.275h-97.37c-2.565 33.494-17.232 62.99-39.65 84.873-24.856 24.26-59.153 38.907-96.843 38.907H768.084c-37.566 0-71.765-14.566-96.588-38.494-22.816-21.995-37.659-51.736-39.988-85.286H491.595c-4.703 0-12.518 6.18-19.984 15.987-7.573 9.943-13.027 22.945-13.027 37.058v1007.94c0 14.638 5.987 27.856 15.667 37.39 9.817 9.672 23.48 15.654 38.655 15.654h506.056a336.077 336.077 0 0 0 23.9 61.892z"/><path id="_344237488" class="fil1" d="M1015.53 397.168H990a55.977 55.977 0 0 1-38.735-15.5v-.122c-10.444-9.99-16.904-23.767-16.904-38.944v-.8c0-6.456-2.7-12.284-7.068-16.491l-.06.062c-4.834-4.621-11.643-7.483-19.28-7.483h-1.324c-7.719 0-14.52 2.815-19.275 7.363-4.402 4.21-7.126 10.062-7.126 16.55v.79c0 15.184-6.461 28.96-16.907 38.95-10.091 9.653-23.806 15.626-38.74 15.626v-.12l-25.52-.002v.12c-5.394 0-10.175 1.993-13.54 5.21-2.932 2.806-4.748 6.673-4.748 10.933v.956c0 4.26 1.816 8.126 4.749 10.93 3.364 3.22 8.145 5.21 13.539 5.21h216.469c5.476 0 10.247-1.945 13.532-5.086 2.93-2.804 4.746-6.711 4.746-11.054v-.956c0-4.342-1.816-8.25-4.746-11.055-3.363-3.216-8.141-5.207-13.532-5.207v.12zm-19.533-61.891h19.533v.12c21.794.002 41.633 8.554 56.082 22.375 14.882 14.237 24.088 33.877 24.088 55.538v.956c0 21.663-9.207 41.3-24.088 55.536-14.529 13.9-34.371 22.497-56.082 22.497H799.061c-21.795 0-41.636-8.553-56.09-22.376-14.881-14.235-24.09-33.913-24.09-55.657v-.956c0-21.744 9.209-41.424 24.09-55.657 14.454-13.824 34.295-22.376 56.09-22.376v.12l19.521.002c1.636-21.26 11.35-40.401 26.222-54.629a89.334 89.334 0 0 1 61.825-24.772h1.324c24.038 0 45.907 9.423 61.83 24.65v.122c14.845 14.2 24.55 33.296 26.214 54.507z"/><path id="_344237848" class="fil1" d="M1223.15 1460.67c-12.083-12.083-31.675-12.083-43.759 0-12.082 12.083-12.082 31.676 0 43.759l92.836 92.836-.002.002c12.084 12.084 31.68 12.084 43.763 0l.171-.176 185.498-185.498c12.083-12.083 12.083-31.676 0-43.759-12.083-12.082-31.676-12.082-43.758 0l-163.792 163.792-70.957-70.956z"/><path id="_344238568" class="fil1" d="M644.259 739.86c-17.09 0-30.946 13.855-30.946 30.946 0 17.09 13.857 30.946 30.946 30.946h526.068c17.09 0 30.946-13.855 30.946-30.946 0-17.09-13.855-30.946-30.946-30.946H644.259z"/><path id="_344237392" class="fil1" d="M644.259 956.479c-17.09 0-30.946 13.855-30.946 30.946 0 17.09 13.857 30.945 30.946 30.945h526.068c17.09 0 30.946-13.855 30.946-30.945s-13.855-30.946-30.946-30.946H644.259z"/><path id="_344238424" class="fil1" d="M644.259 1173.1c-17.09 0-30.946 13.855-30.946 30.946 0 17.09 13.857 30.946 30.946 30.946h473.387c22.92-20.801 48.339-38.173 75.533-51.812-5.66-6.193-13.802-10.08-22.852-10.08H644.259z"/><path id="_344237344" class="fil1" d="M644.259 1389.71c-17.09 0-30.946 13.857-30.946 30.946 0 17.09 13.857 30.946 30.946 30.946h364.166a337.206 337.206 0 0 1 12.057-61.892H644.259z"/><path id="_344239240" class="fil1" d="M1344.51 1240.29c-67.632 0-128.86 27.412-173.175 71.728-44.317 44.318-71.728 105.547-71.728 173.178 0 67.635 27.41 128.865 71.727 173.183 44.315 44.317 105.543 71.73 173.176 71.73 67.633 0 128.86-27.411 173.177-71.727 44.317-44.318 71.728-105.546 71.728-173.176 0-67.636-27.41-128.867-71.727-173.186-44.315-44.316-105.543-71.73-173.178-71.73zm-216.933 27.97c55.519-55.52 132.217-89.862 216.933-89.862 84.718 0 161.419 34.343 216.937 89.863 55.52 55.522 89.86 132.226 89.86 216.945 0 84.713-34.34 161.413-89.861 216.934-55.52 55.52-132.22 89.86-216.936 89.86-84.716 0-161.415-34.342-216.934-89.863-55.52-55.522-89.86-132.223-89.86-216.942 0-84.714 34.34-161.417 89.861-216.937z"/></g></g></svg>